<svg width="514" height="473" viewBox="0 0 514 473" fill="none" xmlns="http://www.w3.org/2000/svg">
<g id="House">
<g id="Group">
<path id="Vector" fill-rule="evenodd" clip-rule="evenodd" d="M257.011 71.472L462.594 277.055V421.202C462.594 434.833 457.179 447.906 447.541 457.545C437.902 467.183 424.829 472.598 411.198 472.598H102.824C89.1934 472.598 76.1207 467.183 66.4822 457.545C56.8436 447.906 51.4287 434.833 51.4287 421.202V277.055L257.011 71.472V71.472ZM428.33 44.3008V164.224L359.803 95.6965V44.3008C359.803 39.7572 361.608 35.3996 364.821 32.1868C368.033 28.9739 372.391 27.1689 376.935 27.1689H411.198C415.742 27.1689 420.1 28.9739 423.313 32.1868C426.525 35.3996 428.33 39.7572 428.33 44.3008Z" fill="#09598D"/>
<path id="Vector_2" fill-rule="evenodd" clip-rule="evenodd" d="M232.776 10.032C239.201 3.6085 247.914 0 257 0C266.086 0 274.799 3.6085 281.224 10.032L508.976 237.749C512.193 240.966 514 245.329 514 249.878C514 254.428 512.193 258.791 508.976 262.008C505.759 265.225 501.396 267.032 496.846 267.032C492.297 267.032 487.934 265.225 484.717 262.008L257 34.2565L29.2829 262.008C26.066 265.225 21.7029 267.032 17.1535 267.032C12.6041 267.032 8.24107 265.225 5.02415 262.008C1.80724 258.791 0 254.428 0 249.878C0 245.329 1.80724 240.966 5.02415 237.749L232.776 10.032Z" fill="#09598D"/>
</g>
<g id="stack">
<path id="Vector_3" fill-rule="evenodd" clip-rule="evenodd" d="M150.955 432.948L96.0361 404.906V371.366L216.369 312.117L271.3 340.175V374.528L150.955 432.948Z" fill="#24AE5F"/>
<path id="Vector_4" fill-rule="evenodd" clip-rule="evenodd" d="M96.04 396.55V403.521L150.37 431.404L271.299 372.152V365.181L150.37 424.433L96.04 396.55ZM96.04 384.352V391.323L150.37 419.206L271.299 359.954V352.983L150.37 412.235L96.04 384.352ZM150.37 399.231L96.04 371.351V378.321L150.37 406.204L271.299 346.952V339.981L150.37 399.231Z" fill="#1E9450"/>
<path id="Vector_5" fill-rule="evenodd" clip-rule="evenodd" d="M177.82 371.278L151.267 384.035L128.595 371.837L159.296 356.797C159.296 356.797 157.165 350.675 158.469 349.742C158.446 349.852 113.168 372.39 113.168 372.39L151.919 391.765L191.757 371.848C191.757 371.848 187.856 371.977 184.4 371.834C180.89 371.694 177.82 371.278 177.82 371.278V371.278ZM209.24 363.109L256.112 340.645L218.024 319.967L178.224 339.865C184.258 339.554 189.2 342.15 189.2 342.15L217.536 328.269L241.951 340.47L209.259 356.173L209.24 363.109Z" fill="#1E9450"/>
<path id="Vector_6" d="M187.726 362.748C189.306 362.796 190.882 362.557 192.376 362.042L184.13 357.672L183.428 357.855L182.531 358.142C181.309 358.509 180.057 358.848 178.769 359.154C177.481 359.46 176.173 359.652 174.843 359.729C173.513 359.806 172.186 359.726 170.866 359.493C169.482 359.238 168.147 358.767 166.91 358.098C165.568 357.387 164.636 356.625 164.115 355.815C163.594 355.001 163.4 354.193 163.531 353.384C163.662 352.576 164.082 351.781 164.788 351.003C165.576 350.158 166.482 349.43 167.478 348.844L164.44 347.234L166.732 346.019L169.77 347.629C171.082 347.075 172.437 346.629 173.822 346.297C175.225 345.958 176.658 345.758 178.101 345.701C179.578 345.647 181.056 345.755 182.51 346.021C184.036 346.302 185.517 346.783 186.917 347.451L181.4 350.375C180.26 349.815 179.014 349.505 177.745 349.465C176.388 349.405 175.268 349.608 174.387 350.075L181.372 353.777L182.562 353.398L183.868 352.999C186.31 352.263 188.439 351.826 190.25 351.685C192.061 351.55 193.636 351.573 194.97 351.758C196.304 351.945 197.438 352.237 198.37 352.632C199.302 353.031 200.099 353.405 200.756 353.754C201.335 354.06 201.922 354.522 202.518 355.142C203.114 355.761 203.464 356.488 203.567 357.324C203.672 358.161 203.429 359.084 202.845 360.091C202.258 361.098 201.06 362.152 199.251 363.253L202.604 365.031L200.312 366.246L196.958 364.468C193.846 365.893 190.673 366.613 187.436 366.627C184.2 366.643 180.9 365.895 177.535 364.386L183.013 361.484C184.456 362.285 186.075 362.719 187.726 362.748V362.748ZM195.788 359.876C196.122 359.518 196.332 359.149 196.419 358.768C196.504 358.379 196.442 357.972 196.246 357.626C196.045 357.245 195.629 356.887 194.996 356.553C193.997 356.015 192.868 355.766 191.736 355.833C190.588 355.899 189.039 356.223 187.09 356.81L194.666 360.825C195.077 360.555 195.454 360.236 195.788 359.876V359.876ZM171.006 352.076C170.745 352.323 170.566 352.645 170.492 352.996C170.464 353.164 170.469 353.336 170.509 353.502C170.548 353.668 170.62 353.824 170.721 353.961C170.934 354.282 171.317 354.588 171.871 354.88C172.74 355.34 173.682 355.553 174.698 355.515C175.715 355.478 176.991 355.205 178.524 354.7L172.09 351.293C171.69 351.496 171.325 351.76 171.006 352.076V352.076Z" fill="#1E9450"/>
</g>
<g id="stack_2">
<path id="Vector_7" fill-rule="evenodd" clip-rule="evenodd" d="M296.273 436.739L241.354 408.697V375.157L361.686 315.908L416.617 343.966V378.319L296.273 436.739Z" fill="#24AE5F"/>
<path id="Vector_8" fill-rule="evenodd" clip-rule="evenodd" d="M241.357 400.341V407.312L295.688 435.195L416.617 375.943V368.972L295.688 428.224L241.357 400.341ZM241.357 388.143V395.114L295.688 422.997L416.617 363.745V356.774L295.688 416.026L241.357 388.143ZM295.688 403.022L241.357 375.142V382.112L295.688 409.995L416.617 350.743V343.772L295.688 403.022Z" fill="#1E9450"/>
<path id="Vector_9" fill-rule="evenodd" clip-rule="evenodd" d="M323.138 375.069L296.585 387.826L273.914 375.628L304.615 360.588C304.615 360.588 302.483 354.466 303.787 353.533C303.764 353.643 258.486 376.181 258.486 376.181L297.237 395.556L337.075 375.639C337.075 375.639 333.175 375.768 329.719 375.625C326.209 375.485 323.138 375.069 323.138 375.069V375.069ZM354.559 366.9L401.43 344.436L363.343 323.758L323.543 343.656C329.576 343.345 334.518 345.941 334.518 345.941L362.854 332.06L387.269 344.261L354.577 359.964L354.559 366.9Z" fill="#1E9450"/>
<path id="Vector_10" d="M333.043 366.538C334.623 366.586 336.199 366.347 337.693 365.832L329.447 361.462L328.746 361.645L327.849 361.932C326.626 362.299 325.374 362.638 324.086 362.944C322.799 363.25 321.49 363.442 320.161 363.519C318.831 363.596 317.504 363.516 316.183 363.283C314.8 363.028 313.465 362.557 312.227 361.888C310.886 361.177 309.953 360.415 309.432 359.605C308.911 358.791 308.717 357.983 308.848 357.174C308.979 356.366 309.4 355.571 310.105 354.793C310.893 353.948 311.799 353.22 312.795 352.634L309.757 351.024L312.05 349.809L315.087 351.419C316.399 350.865 317.755 350.419 319.139 350.087C320.543 349.748 321.976 349.549 323.418 349.491C324.895 349.437 326.374 349.545 327.828 349.811C329.353 350.092 330.835 350.573 332.235 351.241L326.718 354.165C325.578 353.605 324.332 353.295 323.063 353.256C321.705 353.195 320.586 353.398 319.705 353.865L326.689 357.567L327.879 357.188L329.185 356.789C331.627 356.053 333.756 355.616 335.567 355.475C337.378 355.34 338.953 355.363 340.287 355.548C341.622 355.735 342.755 356.027 343.687 356.422C344.62 356.821 345.417 357.195 346.073 357.544C346.653 357.85 347.239 358.312 347.835 358.932C348.431 359.551 348.782 360.278 348.884 361.114C348.989 361.951 348.746 362.874 348.162 363.881C347.576 364.888 346.377 365.942 344.568 367.043L347.922 368.821L345.629 370.036L342.276 368.258C339.163 369.683 335.99 370.403 332.753 370.417C329.517 370.433 326.217 369.686 322.852 368.176L328.33 365.274C329.774 366.075 331.392 366.509 333.043 366.538V366.538ZM341.105 363.666C341.439 363.308 341.65 362.939 341.736 362.558C341.821 362.169 341.759 361.762 341.563 361.416C341.362 361.035 340.946 360.677 340.313 360.343C339.314 359.805 338.185 359.556 337.053 359.623C335.906 359.689 334.357 360.014 332.408 360.6L339.983 364.615C340.394 364.345 340.771 364.026 341.105 363.666V363.666ZM316.324 355.866C316.063 356.113 315.884 356.435 315.809 356.786C315.781 356.954 315.787 357.126 315.826 357.292C315.865 357.458 315.938 357.614 316.038 357.752C316.251 358.072 316.634 358.378 317.188 358.67C318.057 359.13 318.999 359.343 320.016 359.305C321.032 359.268 322.308 358.995 323.841 358.49L317.408 355.083C317.008 355.286 316.642 355.55 316.324 355.866V355.866Z" fill="#1E9450"/>
</g>
<g id="stack_3">
<path id="Vector_11" fill-rule="evenodd" clip-rule="evenodd" d="M150.955 396.302L96.0361 368.261V334.721L216.369 275.472L271.3 303.53V337.883L150.955 396.302Z" fill="#24AE5F"/>
<path id="Vector_12" fill-rule="evenodd" clip-rule="evenodd" d="M96.04 359.905V366.876L150.37 394.758L271.299 335.507V328.536L150.37 387.788L96.04 359.905ZM96.04 347.707V354.678L150.37 382.56L271.299 323.308V316.338L150.37 375.589L96.04 347.707ZM150.37 362.585L96.04 334.705V341.676L150.37 369.558L271.299 310.307V303.336L150.37 362.585Z" fill="#1E9450"/>
<path id="Vector_13" fill-rule="evenodd" clip-rule="evenodd" d="M177.82 334.633L151.267 347.389L128.595 335.191L159.296 320.151C159.296 320.151 157.165 314.029 158.469 313.097C158.446 313.206 113.168 335.745 113.168 335.745L151.919 355.119L191.757 335.203C191.757 335.203 187.856 335.331 184.4 335.189C180.89 335.048 177.82 334.633 177.82 334.633V334.633ZM209.24 326.463L256.112 304L218.024 283.321L178.224 303.219C184.258 302.908 189.2 305.504 189.2 305.504L217.536 291.624L241.951 303.824L209.259 319.528L209.24 326.463Z" fill="#1E9450"/>
<path id="Vector_14" d="M187.726 326.101C189.306 326.15 190.882 325.911 192.376 325.396L184.13 321.026L183.428 321.208L182.531 321.496C181.309 321.862 180.057 322.201 178.769 322.507C177.481 322.813 176.173 323.005 174.843 323.082C173.513 323.159 172.186 323.08 170.866 322.846C169.482 322.591 168.147 322.12 166.91 321.451C165.568 320.741 164.636 319.979 164.115 319.168C163.594 318.355 163.4 317.546 163.531 316.738C163.662 315.929 164.082 315.135 164.788 314.357C165.576 313.511 166.482 312.784 167.478 312.197L164.44 310.587L166.732 309.372L169.77 310.982C171.082 310.428 172.437 309.983 173.822 309.65C175.225 309.312 176.658 309.112 178.101 309.054C179.578 309.001 181.056 309.108 182.51 309.375C184.036 309.656 185.517 310.136 186.917 310.805L181.4 313.728C180.26 313.169 179.014 312.859 177.745 312.819C176.388 312.758 175.268 312.962 174.387 313.429L181.372 317.13L182.562 316.752L183.868 316.352C186.31 315.616 188.439 315.179 190.25 315.039C192.061 314.903 193.636 314.927 194.97 315.111C196.304 315.298 197.438 315.59 198.37 315.985C199.302 316.385 200.099 316.759 200.756 317.107C201.335 317.413 201.922 317.876 202.518 318.495C203.114 319.114 203.464 319.841 203.567 320.678C203.672 321.514 203.429 322.437 202.845 323.444C202.258 324.452 201.06 325.505 199.251 326.606L202.604 328.384L200.312 329.599L196.958 327.821C193.846 329.247 190.673 329.966 187.436 329.98C184.2 329.997 180.9 329.249 177.535 327.739L183.013 324.837C184.456 325.638 186.075 326.072 187.726 326.101V326.101ZM195.788 323.229C196.122 322.872 196.332 322.503 196.419 322.122C196.504 321.733 196.442 321.326 196.246 320.979C196.045 320.598 195.629 320.241 194.996 319.906C193.997 319.369 192.868 319.12 191.736 319.187C190.588 319.252 189.039 319.577 187.09 320.164L194.666 324.178C195.077 323.908 195.454 323.59 195.788 323.229V323.229ZM171.006 315.429C170.745 315.677 170.566 315.998 170.492 316.35C170.464 316.518 170.469 316.69 170.509 316.856C170.548 317.021 170.62 317.178 170.721 317.315C170.934 317.635 171.317 317.941 171.871 318.233C172.74 318.694 173.682 318.906 174.698 318.869C175.715 318.832 176.991 318.558 178.524 318.053L172.09 314.646C171.69 314.849 171.325 315.113 171.006 315.429V315.429Z" fill="#1E9450"/>
</g>
<g id="stack_4">
<path id="Vector_15" fill-rule="evenodd" clip-rule="evenodd" d="M296.273 402.621L241.354 374.579V341.039L361.686 281.79L416.617 309.848V344.201L296.273 402.621Z" fill="#24AE5F"/>
<path id="Vector_16" fill-rule="evenodd" clip-rule="evenodd" d="M241.357 366.223V373.194L295.688 401.077L416.617 341.825V334.854L295.688 394.106L241.357 366.223ZM241.357 354.025V360.996L295.688 388.878L416.617 329.627V322.656L295.688 381.908L241.357 354.025ZM295.688 368.904L241.357 341.023V347.994L295.688 375.877L416.617 316.625V309.654L295.688 368.904Z" fill="#1E9450"/>
<path id="Vector_17" fill-rule="evenodd" clip-rule="evenodd" d="M323.138 340.951L296.585 353.707L273.914 341.509L304.615 326.47C304.615 326.47 302.483 320.347 303.787 319.415C303.764 319.525 258.486 342.063 258.486 342.063L297.237 361.438L337.075 341.521C337.075 341.521 333.175 341.65 329.719 341.507C326.209 341.367 323.138 340.951 323.138 340.951V340.951ZM354.559 332.781L401.43 310.318L363.343 289.64L323.543 309.537C329.576 309.227 334.518 311.823 334.518 311.823L362.854 297.942L387.269 310.143L354.577 325.846L354.559 332.781Z" fill="#1E9450"/>
<path id="Vector_18" d="M333.043 332.42C334.623 332.468 336.199 332.229 337.693 331.714L329.447 327.344L328.746 327.526L327.849 327.814C326.626 328.181 325.374 328.52 324.086 328.826C322.799 329.132 321.49 329.323 320.161 329.401C318.831 329.478 317.504 329.398 316.183 329.165C314.8 328.909 313.465 328.439 312.227 327.769C310.886 327.059 309.953 326.297 309.432 325.486C308.911 324.673 308.717 323.865 308.848 323.056C308.979 322.248 309.4 321.453 310.105 320.675C310.893 319.829 311.799 319.102 312.795 318.516L309.757 316.906L312.05 315.691L315.087 317.301C316.399 316.747 317.755 316.301 319.139 315.969C320.543 315.63 321.976 315.43 323.418 315.373C324.895 315.319 326.374 315.426 327.828 315.693C329.353 315.974 330.835 316.455 332.235 317.123L326.718 320.046C325.578 319.487 324.332 319.177 323.063 319.137C321.705 319.077 320.586 319.28 319.705 319.747L326.689 323.449L327.879 323.07L329.185 322.671C331.627 321.935 333.756 321.498 335.567 321.357C337.378 321.222 338.953 321.245 340.287 321.43C341.622 321.617 342.755 321.909 343.687 322.304C344.62 322.703 345.417 323.077 346.073 323.425C346.653 323.731 347.239 324.194 347.835 324.813C348.431 325.433 348.782 326.159 348.884 326.996C348.989 327.833 348.746 328.756 348.162 329.763C347.576 330.77 346.377 331.824 344.568 332.924L347.922 334.703L345.629 335.918L342.276 334.14C339.163 335.565 335.99 336.285 332.753 336.299C329.517 336.315 326.217 335.567 322.852 334.058L328.33 331.155C329.774 331.956 331.392 332.391 333.043 332.42V332.42ZM341.105 329.548C341.439 329.19 341.65 328.821 341.736 328.44C341.821 328.051 341.759 327.644 341.563 327.297C341.362 326.917 340.946 326.559 340.313 326.225C339.314 325.687 338.185 325.438 337.053 325.505C335.906 325.571 334.357 325.895 332.408 326.482L339.983 330.496C340.394 330.227 340.771 329.908 341.105 329.548V329.548ZM316.324 321.748C316.063 321.995 315.884 322.316 315.809 322.668C315.781 322.836 315.787 323.008 315.826 323.174C315.865 323.34 315.938 323.496 316.038 323.633C316.251 323.953 316.634 324.26 317.188 324.552C318.057 325.012 318.999 325.225 320.016 325.187C321.032 325.15 322.308 324.877 323.841 324.372L317.408 320.965C317.008 321.168 316.642 321.432 316.324 321.748V321.748Z" fill="#1E9450"/>
</g>
</g>
</svg>
