<svg width="33" height="25" viewBox="0 0 33 25" fill="none" xmlns="http://www.w3.org/2000/svg">
<path d="M31.3301 1.00004C31.1938 0.985991 31.0564 0.985991 30.9201 1.00004H2.92014C2.74068 1.0028 2.56241 1.02971 2.39014 1.08004L16.8401 15.47L31.3301 1.00004Z" fill="black"/>
<path d="M32.8102 2.39001L18.2502 16.89C17.8755 17.2625 17.3685 17.4716 16.8402 17.4716C16.3118 17.4716 15.8049 17.2625 15.4302 16.89L1.00018 2.50001C0.955815 2.66306 0.932294 2.83106 0.930176 3.00001V23C0.930176 23.5304 1.14089 24.0392 1.51596 24.4142C1.89103 24.7893 2.39974 25 2.93018 25H30.9302C31.4606 25 31.9693 24.7893 32.3444 24.4142C32.7195 24.0392 32.9302 23.5304 32.9302 23V3.00001C32.9222 2.79167 32.8817 2.58585 32.8102 2.39001V2.39001ZM4.30018 23H2.91018V21.57L10.1802 14.36L11.5902 15.77L4.30018 23ZM30.9102 23H29.5102L22.2202 15.77L23.6302 14.36L30.9002 21.57L30.9102 23Z" fill="black"/>
</svg>
