<svg width="1366" height="687" viewBox="0 0 1366 687" fill="none" xmlns="http://www.w3.org/2000/svg">
<g id="Passive">
<g id="g12">
<path id="path42" d="M1053.41 676.864L1048.3 511.148C1048.12 505.441 1044.55 500.477 1039.19 498.5C1037.66 497.935 1036.04 497.648 1034.4 497.648C1034.25 497.648 1034.1 497.653 1033.95 497.658C1030.23 497.772 1026.79 499.327 1024.23 502.037C1021.69 504.747 1020.35 508.289 1020.46 512.01C1020.47 512.302 1020.5 512.664 1020.53 512.991L1037.25 676.864H1053.41" fill="#184655"/>
<path id="path44" d="M1157.8 677.552L1162.91 511.836C1163.08 506.129 1166.66 501.165 1172.02 499.193C1173.55 498.629 1175.16 498.341 1176.81 498.341C1176.96 498.341 1177.1 498.341 1177.25 498.346C1180.97 498.46 1184.42 500.016 1186.97 502.726C1189.51 505.436 1190.86 508.978 1190.74 512.698C1190.73 512.996 1190.71 513.357 1190.67 513.679L1173.96 677.552H1157.8" fill="#184655"/>
<path id="path46" d="M1187.4 527.07H1016.77C1004.53 527.07 994.608 517.147 994.608 504.906C994.608 489.785 1006.86 477.534 1021.98 477.534H1182.19C1197.31 477.534 1209.56 489.785 1209.56 504.906C1209.56 517.147 1199.64 527.07 1187.4 527.07Z" fill="#B75742"/>
<path id="path48" d="M1360.52 676.859H89.2596C86.5601 676.859 84.2024 678.895 84.0276 681.59C83.8363 684.543 86.1747 687 89.0857 687H1360.52C1363.32 687 1365.58 684.726 1365.58 681.927C1365.58 679.128 1363.32 676.859 1360.52 676.859Z" fill="#184655"/>
<path id="path50" d="M1293.86 676.869C1293.43 674.332 1291.42 672.415 1288.98 672.415H1199.75C1197.32 672.415 1195.3 674.332 1194.88 676.869H1293.86Z" fill="#F47458"/>
<path id="path52" d="M1226.64 672.489L1199.34 672.42C1199.34 672.42 1204.7 661.709 1214.29 656.527C1223.88 651.345 1240.44 651.454 1240.44 651.454L1226.64 672.489Z" fill="#F48C7F"/>
<path id="path54" d="M1246.01 672.549C1246.01 672.549 1247.86 652.088 1240.78 651.454C1233.71 650.82 1226.64 672.489 1226.64 672.489L1246.01 672.549" fill="#B75742"/>
<path id="path56" d="M1356.53 676.844C1356.22 666.341 1346.84 657.91 1335.3 657.91C1323.76 657.91 1314.38 666.341 1314.07 676.844H1356.53" fill="#F48C7F"/>
<path id="path58" d="M1359.18 676.889C1358.97 674.372 1357.98 672.465 1356.78 672.465H1312.83C1311.64 672.465 1310.64 674.372 1310.43 676.889H1359.18Z" fill="#F47458"/>
<path id="path60" d="M573.289 91.7159C593.398 88.8524 612.115 96.3926 626.244 110.968C658.595 144.334 633.646 165.706 644.287 209.406C638.332 216.03 630.965 221.247 621.374 223.808C576.049 236.466 525.175 229.342 490.917 195C490.739 194.836 490.555 194.673 490.377 194.504C500.013 169.58 516.168 135.288 522.762 127.059C535.519 111.156 548.434 95.2482 573.289 91.7159" fill="#100062"/>
<path id="path62" d="M571.016 184.368C571.016 184.368 570.818 185.399 570.466 187.147C568.767 195.545 563.466 220.548 559.051 228.207C553.716 237.462 571.115 279.111 593.829 275.504C600.597 274.434 589.99 253.122 592.274 242.802C593.567 236.966 597.486 218.799 600.646 204.11C603.079 192.82 605.061 183.59 605.061 183.59L571.016 184.368Z" fill="#F6A390"/>
<path id="path64" d="M570.465 187.147C570.302 187.95 570.109 188.906 569.881 189.981C572.224 194.048 575.38 197.838 579.522 201.163C586.388 206.677 593.23 208.96 599.621 208.876C599.972 207.261 600.314 205.661 600.646 204.11C603.079 192.82 605.06 183.59 605.06 183.59L571.015 184.368C571.015 184.368 570.817 185.399 570.465 187.147" fill="#F47458"/>
<path id="path66" d="M594.543 110.081C594.543 110.081 580.657 111.85 570.6 123.784C560.543 135.724 549.698 172.632 574.687 192.701C599.671 212.765 624.362 190.051 628.023 165.969C631.679 141.882 630.941 109.209 594.543 110.081" fill="#F6A390"/>
<path id="path68" d="M631.871 165.686C628.889 171.002 623.88 173.95 620.69 172.26C617.494 170.576 617.326 164.899 620.308 159.578C623.291 154.257 628.294 151.314 631.49 152.999C634.68 154.683 634.854 160.366 631.871 165.686" fill="#F6A390"/>
<path id="path70" d="M598.768 109.521C598.768 109.521 577.332 144.621 561.999 146.246C546.661 147.866 544.649 166.519 544.649 166.519C544.649 166.519 550.129 123.541 565.313 115.253C580.498 106.965 598.768 109.521 598.768 109.521" fill="#100062"/>
<path id="path72" d="M567.013 154.609C568.261 160.841 565.749 166.558 561.41 167.376C557.07 168.193 552.537 163.804 551.288 157.571C550.045 151.339 552.552 145.622 556.891 144.805C561.236 143.982 565.764 148.377 567.013 154.609Z" fill="#F6A390"/>
<path id="path74" d="M437.388 257.392L441.594 255.247C466.533 242.51 496.713 253.057 509.124 278.849L600.904 469.618C612.16 493.006 637.842 504.827 662.127 497.797L829.835 449.266C852.475 442.717 875.893 456.702 881.779 480.284L605.288 574.328L437.388 257.392Z" fill="#1681C6"/>
<path id="path76" d="M1083.85 449.439C1083.85 449.439 1219.64 441.478 1224.95 449.88C1230.25 458.288 1178.52 470.257 1173.64 473.323C1132.02 499.471 1135.78 483.375 1126.49 481.161C1117.2 478.951 1091.81 477.747 1091.81 477.747L1083.85 449.439Z" fill="#F48C7F"/>
<path id="path78" d="M618.521 505.55C618.521 505.55 623.425 514.671 628.067 516.92C645.199 525.213 678.371 512.625 678.371 512.625L887.055 464.431L1108.22 479.11C1108.22 479.11 1115.76 452.075 1112.11 441.017L909.541 398.352L677.004 421.954L618.521 505.55Z" fill="#FAE0B2"/>
<path id="path80" d="M881.779 484.103C880.956 477.817 879.866 471.564 876.017 466.962C865.821 454.78 846.465 449.781 830.127 454.344L630.663 515.879C628.924 516.414 627.037 516.063 625.605 514.938C623.633 513.387 621.023 511.46 620.626 511.832C611.704 520.288 606.571 573.843 606.571 573.843L606.839 574.328L881.779 484.103Z" fill="#1681C6"/>
<path id="path82" d="M1057.73 454.383C1057.73 454.383 1078.27 462.652 1095.39 471.311C1102.77 475.047 1111.09 482.81 1114.22 483.578C1128.99 487.209 1132.26 478.544 1138.23 469.587C1142 463.935 1158.29 448.195 1168.9 437.455C1175.1 431.168 1179.2 422.256 1176.43 419.313C1168.13 410.504 1147.76 433.397 1130.81 439.268C1121.82 442.379 1112.11 439.635 1102.52 437.39C1091.17 434.735 1076.35 425.986 1076.35 425.986L1057.73 454.383" fill="#F7A491"/>
<path id="path84" d="M593.562 595.883C586.705 595.883 580.086 592.113 576.708 585.539L420.216 280.914C415.386 271.516 419.012 259.938 428.311 255.059C437.615 250.179 449.069 253.84 453.899 263.243L610.391 567.863C615.216 577.266 611.595 588.843 602.291 593.723C599.497 595.19 596.509 595.883 593.562 595.883" fill="#355389"/>
<path id="path86" d="M897.315 487.74C894.223 477.197 883.165 471.158 872.623 474.254C869.492 475.171 591.342 556.785 586.368 558.247L602.211 595.061L883.824 512.426C894.367 509.335 900.406 498.282 897.315 487.74" fill="#355389"/>
<path id="path88" d="M569.385 676.859L608.122 582.18C608.325 581.675 608.518 581.135 608.682 580.605C611.501 571.281 606.229 561.437 596.906 558.614C587.577 555.79 577.733 561.066 574.909 570.39L543.019 675.784C542.915 676.126 542.821 676.512 542.752 676.859H569.385" fill="#355389"/>
<path id="path90" d="M683.538 420.849C683.538 420.849 824.439 340.671 880.227 333.77C901.436 331.149 1102.26 434.799 1102.26 434.799L1081.27 471.079C1081.27 471.079 958.929 439.996 921.426 424.718C910.655 420.333 881.188 401.349 881.188 401.349L683.538 420.849" fill="#F7CC7F"/>
<path id="path92" d="M589.757 247.771C589.757 247.771 712.065 337.862 723.984 339.418C732.961 340.587 822.973 313.072 822.973 313.072L806.074 346.696C806.074 346.696 732.243 388.211 705.847 387.097C674.869 385.789 602.197 324.476 602.197 324.476L589.757 247.771" fill="#F48C7F"/>
<path id="path94" d="M689.261 321.365C689.261 321.365 660.616 362.588 659.927 373.646L599.779 328.276L589.757 247.771L689.261 321.365Z" fill="#3C8F7C"/>
<path id="path96" d="M526.533 224.967C526.533 224.967 511.705 265.601 517.675 314.697C523.644 363.792 618.437 514.155 618.437 514.155C618.437 514.155 638.476 511.049 653.68 493.165C660.071 485.649 683.539 420.849 683.539 420.849C683.539 420.849 653.68 391.659 651.03 372.417C648.375 353.176 645.457 332.596 637.495 302.742C629.534 272.884 555.058 211.7 526.533 224.967" fill="#50BFA5"/>
<path id="path98" d="M526.696 454.666L793.07 438.6L813.446 467.007C816.394 604.103 817.003 657.127 817.127 676.889H842.997C844.424 654.793 847.362 599.674 853.119 462.236C853.074 462.256 812.078 421.518 801.705 413.789C551.942 414.78 525.427 414.884 525.353 414.884C513.894 414.978 504.942 424.644 505.626 435.994C506.284 446.967 515.722 455.33 526.696 454.666" fill="#355389"/>
<path id="path100" d="M622.727 299.725L579.338 364.575C579.338 364.575 572.685 320.954 567.493 274.038C547.34 276.773 529.391 282.178 511.878 291.932C520.325 337.605 547.726 414.007 572.685 423.227C592.115 430.396 628.27 335.063 628.27 335.063L622.727 299.725" fill="#F6A390"/>
<path id="path102" d="M567.824 257.991C564.837 243.575 561.349 229.109 545.764 224.536C536.103 221.707 525.268 224.417 517.55 230.739C508.37 238.264 505.804 250.337 505.848 261.761C505.942 287.701 513.948 313.007 521.895 338.229C539.412 328.474 555.444 331.501 575.597 328.766C577.475 305.685 571.718 276.777 567.824 257.991" fill="#3C8F7C"/>
<path id="path104" d="M649.291 326.696L656.603 326.701L655.686 318.913H649.291C646.269 318.913 643.811 315.42 643.811 311.125V303.337C643.811 299.042 646.269 295.549 649.291 295.549H657.514V287.766H649.291C643.246 287.766 638.332 294.751 638.332 303.337V311.125C638.332 319.71 643.246 326.696 649.291 326.696" fill="#B75742"/>
<path id="path106" d="M699.629 286.587V323.713C699.629 332.244 692.713 339.16 684.187 339.16H670.95C662.424 339.16 655.508 332.244 655.508 323.713V281.875H699.629V286.587" fill="#B75742"/>
<path id="path108" d="M643.257 287.573C646.962 287.478 655.34 292.378 656.375 296.49C657.406 300.602 655.241 305.269 655.434 308.172C655.607 310.773 656.266 314.924 655.305 318.278C655.038 319.215 650.183 324.61 649.578 326.631C648.979 328.652 627.676 336.49 627.676 336.49L622.439 299.968C622.439 299.968 627.319 287.959 643.257 287.573" fill="#F6A390"/>
<path id="path110" d="M753.431 230.402L723.707 356.039C722.998 359.041 724.113 362.078 726.169 362.732L771.97 377.248L799.807 265.571C799.807 265.571 770.32 237.61 759.258 227.127C757.211 225.185 754.274 226.835 753.431 230.402Z" fill="#38ADE9"/>
<path id="path112" d="M729.969 350.718L755.834 241.39C756.677 237.828 759.614 236.174 761.66 238.116C770.642 246.632 784.227 259.508 793.986 268.762L768.998 368.999L732.431 357.406C730.38 356.757 729.26 353.716 729.969 350.718" fill="#FAE0B2"/>
<path id="path114" d="M786.46 217.992L724.98 372.368C723.563 375.925 724.915 379.561 727.798 379.948L795.081 389.019L844.632 267.196L794.273 214.826C792.004 212.463 788.016 214.078 786.46 217.992Z" fill="#38ADE9"/>
<path id="path116" d="M833.252 311.516C833.252 311.516 833.757 298.561 828.699 301.93C823.641 305.299 824.399 313.072 823.136 314.627C821.867 316.183 818.835 318.774 818.077 323.956C817.314 329.138 813.777 332.764 813.267 336.133C812.762 339.502 813.014 342.355 813.014 342.355C813.014 342.355 829.457 340.28 829.962 333.284C830.468 326.289 833.252 311.516 833.252 311.516" fill="#F48C7F"/>
<path id="path220" d="M678.713 246.285C678.768 246.28 678.768 246.28 678.713 246.285V246.285ZM692.05 194.138C695.186 183.759 688.245 172.379 677.876 172.82C675.706 172.909 675.592 176.025 677.757 176.263C677.811 176.288 684.024 176.551 685.961 183.432C686.491 185.245 686.546 187.182 686.219 189C685.565 192.533 683.865 193.791 681.562 197.19L685.624 199.201C693.338 203.016 697.707 211.7 697.192 218.666C696.746 224.645 695.899 227.761 691.718 232.934C685.778 239.582 678.015 239.24 677.143 239.429C672.837 240.553 669.766 242.961 669.043 247.241C668.641 253.538 669.082 258.547 669.984 262.589C670.41 264.462 673.14 264.491 673.615 262.644C674.844 257.021 674.844 256.619 675.899 248.133C675.934 248.064 675.949 247.994 675.959 247.92C675.998 247.865 676.018 247.806 676.043 247.746C676.226 247.568 676.513 246.865 678.411 246.354C679.005 246.216 687.596 246.919 695.795 239.686C709.458 227.796 708.473 204.185 692.05 194.138" fill="#9BC1F9"/>
</g>
<g id="Piggy">
<g id="PiggyCoin">
<path id="Vector" d="M245.313 279.353H214.683V274.146H222.34V240.759H214.683L231.529 223.912H237.655V274.146H245.313V279.353Z" fill="#46B7F1"/>
<path id="Vector_2" d="M229.998 210.422C236.033 210.424 242.01 211.615 247.585 213.927C253.161 216.238 258.226 219.625 262.493 223.895C266.759 228.164 270.143 233.232 272.451 238.809C274.759 244.386 275.945 250.363 275.943 256.398C275.941 262.434 274.751 268.41 272.439 273.986C270.127 279.561 266.74 284.627 262.471 288.893C258.202 293.16 253.134 296.544 247.557 298.851C241.98 301.159 236.003 302.346 229.967 302.344C217.777 302.34 206.089 297.494 197.472 288.872C188.856 280.249 184.017 268.557 184.021 256.368C184.025 244.178 188.872 232.489 197.494 223.873C206.116 215.256 217.808 210.418 229.998 210.422V210.422ZM229.998 187.449C211.719 187.449 194.19 194.71 181.265 207.635C168.34 220.56 161.079 238.089 161.079 256.368C161.079 274.646 168.34 292.176 181.265 305.101C194.19 318.025 211.719 325.286 229.998 325.286C248.276 325.286 265.806 318.025 278.731 305.101C291.655 292.176 298.916 274.646 298.916 256.368C298.916 238.089 291.655 220.56 278.731 207.635C265.806 194.71 248.276 187.449 229.998 187.449V187.449Z" fill="#46B7F1"/>
</g>
<path id="Vector_3" d="M488.208 424.836C486.439 418.968 483.288 413.611 479.019 409.214C475.76 405.699 471.578 403.172 466.95 401.924C469.217 405.508 471.269 409.643 472.801 414.054C474.516 418.556 475.619 423.365 475.956 428.358C476.472 432.672 476.472 437.032 475.956 441.345C475 438.148 473.531 435.127 471.606 432.401C467.813 427.275 462.744 423.23 456.903 420.67C450.434 417.757 443.116 417.34 436.358 419.5C429.6 421.661 423.88 426.245 420.3 432.371C418.768 434.882 417.543 437.608 416.624 440.518C380.419 380.238 315.268 340.326 240.775 340.326C236.976 340.326 233.209 340.418 229.472 340.632C206.361 340.675 183.366 343.902 161.135 350.22C159.236 336.926 141.777 309.971 61.525 309.971L86.0294 386.854C70.6206 399.309 57.6674 414.527 47.8332 431.727L0.264002 432.493C0.264002 432.493 -4.94318 555.015 30.8945 555.015H47.435C58.6954 574.102 73.7612 590.669 91.696 603.687L92.1555 677.537H125.236C165.362 677.537 184.047 677.537 184.047 654.564V642.618C214.943 648.343 246.635 648.26 277.501 642.373L275.938 654.564C275.938 677.537 294.929 677.537 335.362 677.537H367.83V604.33C396.552 584.417 417.222 554.905 426.12 521.107C427.866 520.28 429.612 520.372 431.388 520.372C433.165 520.372 434.911 520.28 436.657 520.066C444.345 518.657 451.359 515.655 457.455 511.397C465.693 505.569 471.998 497.408 475.557 487.965C476.415 485.116 477.058 482.115 477.487 479.021L477.518 478.715C484.287 470.689 488.912 460.643 490.352 449.585C491.604 441.135 490.848 432.51 488.147 424.407L488.208 424.836ZM107.777 424.836C113.87 424.836 119.713 427.256 124.021 431.564C128.33 435.872 130.75 441.716 130.75 447.808C130.75 453.901 128.33 459.744 124.021 464.053C119.713 468.361 113.87 470.781 107.777 470.781C101.684 470.781 95.841 468.361 91.5328 464.053C87.2245 459.744 84.8042 453.901 84.8042 447.808C84.8042 441.716 87.2245 435.872 91.5328 431.564C95.841 427.256 101.684 424.836 107.777 424.836V424.836ZM180.371 401.863C176.912 402.972 173.172 402.821 169.813 401.436C166.455 400.051 163.695 397.522 162.024 394.297C161.503 392.69 161.328 390.99 161.512 389.311C161.697 387.632 162.235 386.01 163.092 384.554C163.949 383.098 165.105 381.84 166.483 380.864C167.862 379.888 169.432 379.215 171.09 378.89C191.237 374.059 211.913 371.795 232.627 372.151L235.721 372.12C256.304 372.12 276.275 374.571 295.419 379.227C299.279 379.962 303.445 384.801 303.445 390.621C303.443 391.859 303.247 393.089 302.863 394.266C301.79 396.252 300.278 397.967 298.441 399.278C296.604 400.589 294.491 401.463 292.265 401.832H287.578C270.466 397.712 252.923 395.655 235.322 395.706H232.596C214.065 395.706 196.054 397.942 178.809 402.169L180.371 401.863ZM446.857 491.61C442.724 494.616 437.991 496.695 432.981 497.705L429.091 497.736V493.754V484.259C434.145 488.088 440.547 490.385 447.469 490.385H448.112L446.857 491.61ZM449.307 470.781C446.46 471.18 443.56 470.658 441.03 469.292C438.501 467.925 436.474 465.785 435.248 463.185C433.844 460.51 433.113 457.533 433.119 454.513C433.124 451.492 433.865 448.518 435.278 445.848C436.734 443.832 438.879 442.42 441.306 441.878C443.733 441.336 446.274 441.703 448.449 442.908C451.225 443.973 453.612 445.855 455.297 448.304C456.981 450.754 457.883 453.657 457.884 456.63V456.661C458.489 460.908 458.479 465.22 457.853 469.464C455.008 470.012 452.111 470.238 449.215 470.138L449.307 470.781Z" fill="#38ADE9"/>
</g>
</g>
</svg>
