<svg width="825" height="824" viewBox="0 0 825 824" fill="none" xmlns="http://www.w3.org/2000/svg">
<path d="M785.6 130.2L679.1 23.8C671.587 16.2544 662.658 10.2674 652.825 6.18305C642.991 2.0987 632.448 -0.00255196 621.8 2.32595e-06C600.1 2.32595e-06 579.7 8.5 564.4 23.8L449.8 138.4C442.254 145.913 436.267 154.842 432.183 164.675C428.099 174.509 425.998 185.052 426 195.7C426 217.4 434.5 237.8 449.8 253.1L533.6 336.9C513.984 380.136 486.712 419.469 453.1 453C419.572 486.694 380.243 514.065 337 533.8L253.2 450C245.687 442.454 236.758 436.467 226.925 432.383C217.091 428.299 206.548 426.197 195.9 426.2C174.2 426.2 153.8 434.7 138.5 450L23.8001 564.5C16.2451 572.026 10.253 580.973 6.1685 590.823C2.08396 600.674 -0.0123919 611.236 5.51037e-05 621.9C5.51037e-05 643.6 8.50006 664 23.8001 679.3L130.1 785.6C154.5 810.1 188.2 824 222.8 824C230.1 824 237.1 823.4 244 822.2C378.8 800 512.5 728.3 620.4 620.5C728.2 512.8 799.8 379.2 822.3 244C829.1 202.7 815.4 160.2 785.6 130.2V130.2Z" fill="black"/>
</svg>
